<svg width="357" height="91" viewBox="0 0 357 91" fill="none" xmlns="http://www.w3.org/2000/svg">
<g clip-path="url(#clip0_1894_3718)">
<mask id="mask0_1894_3718" style="mask-type:luminance" maskUnits="userSpaceOnUse" x="0" y="0" width="357" height="91">
<path d="M357 0H0V91H357V0Z" fill="white"/>
</mask>
<g mask="url(#mask0_1894_3718)">
<mask id="mask1_1894_3718" style="mask-type:luminance" maskUnits="userSpaceOnUse" x="0" y="0" width="357" height="91">
<path d="M357 0H0V91H357V0Z" fill="white"/>
</mask>
<g mask="url(#mask1_1894_3718)">
<path d="M335.278 0.472656H21.7222C9.98612 0.472656 0.472168 10.0216 0.472168 21.8008V68.3577C0.472168 80.1369 9.98612 89.6858 21.7222 89.6858H335.278C347.013 89.6858 356.528 80.1369 356.528 68.3577V21.8008C356.528 10.0216 347.013 0.472656 335.278 0.472656Z" fill="white" stroke="white"/>
<path opacity="0.4" d="M164.333 8.52995C164.333 8.00642 164.756 7.58203 165.278 7.58203C165.799 7.58203 166.222 8.00643 166.222 8.52995V82.4674C166.222 82.991 165.799 83.4154 165.278 83.4154C164.756 83.4154 164.333 82.991 164.333 82.4674V8.52995Z" fill="url(#paint0_linear_1894_3718)"/>
<mask id="mask2_1894_3718" style="mask-type:luminance" maskUnits="userSpaceOnUse" x="40" y="28" width="98" height="35">
<path d="M137.202 28.4355H40.6111V62.5605H137.202V28.4355Z" fill="white"/>
</mask>
<g mask="url(#mask2_1894_3718)">
<path d="M137.202 31.2793H40.6111V59.7016H137.202V31.2793Z" fill="white"/>
<path d="M40.7444 36.3524H136.945V36.1699H40.7444" fill="#929497"/>
<path fill-rule="evenodd" clip-rule="evenodd" d="M87.2535 33.5956C87.2998 33.7223 87.3725 33.8411 87.4698 33.9462C87.5576 34.0393 87.669 34.1154 87.7956 34.1692C87.9155 34.2196 88.0478 34.2457 88.1819 34.2451C88.3226 34.2469 88.4614 34.2208 88.588 34.1692C88.7164 34.1162 88.8269 34.0374 88.911 33.9398C89.0111 33.8327 89.0838 33.7095 89.1254 33.5777C89.1745 33.4196 89.1981 33.2566 89.1962 33.0931C89.1962 32.9848 89.1858 32.8767 89.1631 32.7699C89.1414 32.6726 89.1103 32.5768 89.0687 32.4839C89.0016 32.3244 88.8798 32.1847 88.7193 32.0817C88.6418 32.036 88.5549 32.0011 88.4643 31.9782C88.3755 31.9551 88.2829 31.9431 88.1904 31.9427C88.0572 31.9413 87.925 31.9645 87.8031 32.0106C87.6775 32.06 87.5651 32.131 87.4735 32.219C87.364 32.3242 87.2875 32.4502 87.2488 32.5858C87.193 32.7661 87.1675 32.952 87.1723 33.1384C87.1732 33.2932 87.2006 33.4471 87.2535 33.5956ZM86.8842 32.4904C86.9409 32.3133 87.0419 32.1481 87.1798 32.0057C87.2998 31.8779 87.4528 31.7747 87.6275 31.7035C87.8098 31.6338 88.0071 31.5989 88.2074 31.6017C88.3386 31.6015 88.469 31.6179 88.5936 31.6503C88.7145 31.6831 88.8298 31.7298 88.9355 31.7892C89.0451 31.8531 89.1433 31.9298 89.2274 32.017C89.3152 32.1084 89.387 32.2095 89.4418 32.3176C89.4994 32.4342 89.5419 32.5555 89.5693 32.6795C89.5985 32.8143 89.6127 32.9512 89.6118 33.0882C89.6127 33.2253 89.5985 33.3621 89.5693 33.4971C89.5419 33.623 89.4956 33.7455 89.4323 33.8621C89.3785 33.9717 89.3048 34.0737 89.2141 34.1643C89.1273 34.2542 89.0234 34.3316 88.9063 34.3937C88.7986 34.4495 88.6815 34.4925 88.5587 34.5214C88.4369 34.5475 88.3103 34.5605 88.1838 34.5602C88.0534 34.5604 87.9231 34.5451 87.7975 34.515C87.6709 34.4833 87.55 34.4352 87.4405 34.3728C87.3375 34.3066 87.2459 34.2289 87.1685 34.1417C87.0806 34.0503 87.0089 33.9492 86.956 33.8412C86.9003 33.7279 86.8596 33.6105 86.8323 33.4905C86.8049 33.3713 86.7907 33.2501 86.7916 33.1286C86.785 32.9133 86.8162 32.6982 86.8842 32.4904Z" fill="#808184"/>
<path fill-rule="evenodd" clip-rule="evenodd" d="M91.4526 34.2191C91.3827 34.3233 91.2836 34.4114 91.1636 34.476C91.0456 34.5332 90.9124 34.5629 90.7764 34.5617C90.7159 34.5618 90.6546 34.5568 90.5951 34.5471L90.4232 34.5002L90.2824 34.4195L90.1833 34.3225L90.1162 34.2029C90.0936 34.1574 90.0766 34.1096 90.0681 34.0607C90.0586 34.0176 90.0539 33.9738 90.052 33.9299C90.052 33.8734 90.052 33.8086 90.052 33.7343V32.4531H90.4156V33.6035C90.4156 33.6924 90.4156 33.765 90.4156 33.8313C90.4175 33.8784 90.4232 33.9254 90.4326 33.9719L90.4893 34.0947L90.5818 34.1901L90.7056 34.2498L90.8501 34.2692L91.0106 34.2498L91.1589 34.1868L91.2864 34.0898L91.3619 33.9654C91.3837 33.9132 91.3978 33.8589 91.4044 33.8039C91.4167 33.7273 91.4224 33.6501 91.4224 33.5728V32.4531H91.7869V34.5213H91.4545L91.4526 34.2191Z" fill="#808184"/>
<path fill-rule="evenodd" clip-rule="evenodd" d="M92.3447 32.4525H92.6753V32.7676C92.7083 32.7042 92.747 32.6426 92.7895 32.5834C92.8178 32.5421 92.8556 32.5059 92.9009 32.4768L93.0114 32.4218L93.137 32.4023C93.1994 32.4033 93.2608 32.4143 93.3184 32.4347C93.3883 32.4545 93.4534 32.4834 93.512 32.5204L93.3902 32.8435L93.2533 32.7869L93.12 32.7676L93.0095 32.7853L92.9132 32.8354L92.8282 32.9194L92.7734 33.0261C92.7517 33.091 92.7357 33.1575 92.7272 33.2248C92.7178 33.2957 92.712 33.3668 92.712 33.4381V34.5207H92.3447V32.4525Z" fill="#808184"/>
<path fill-rule="evenodd" clip-rule="evenodd" d="M94.895 31.6621H95.4749L96.1738 33.6867C96.2031 33.7787 96.2305 33.8627 96.2569 33.9338C96.2843 34.0049 96.3013 34.0615 96.3192 34.1067C96.3362 34.0517 96.358 33.9888 96.3806 33.9128C96.4042 33.8369 96.4354 33.7512 96.4713 33.6511L97.1749 31.6621H97.7038V34.517H97.3298V32.1226L96.4713 34.517H96.1219L95.2662 32.0854V34.517H94.895V31.6621Z" fill="#808184"/>
<path fill-rule="evenodd" clip-rule="evenodd" d="M98.293 32.449H98.6566V34.517H98.293V32.449ZM98.293 31.6621H98.6566V32.0644H98.293V31.6621Z" fill="#808184"/>
<path fill-rule="evenodd" clip-rule="evenodd" d="M99.4132 33.85C99.4235 33.9135 99.4443 33.9755 99.4755 34.0342C99.5029 34.0842 99.5397 34.1301 99.586 34.17C99.6332 34.207 99.6899 34.2356 99.7513 34.2539C99.823 34.2736 99.8967 34.283 99.9723 34.2814C100.046 34.2827 100.12 34.2744 100.19 34.2572C100.247 34.2446 100.299 34.2181 100.339 34.1812L100.433 34.0762L100.464 33.9502L100.44 33.8483L100.357 33.7644C100.315 33.7434 100.272 33.7256 100.227 33.7111C100.165 33.6916 100.086 33.6707 99.9874 33.6465C99.8504 33.611 99.7362 33.5802 99.6455 33.5527C99.5548 33.5252 99.483 33.4978 99.4311 33.4784L99.2998 33.3911L99.1988 33.2781L99.1393 33.1472C99.1232 33.1004 99.1156 33.052 99.1156 33.0035L99.1336 32.8693L99.1836 32.7432L99.2649 32.6398L99.365 32.5477L99.4679 32.4912L99.5973 32.4475L99.7475 32.4153C99.8013 32.4072 99.8561 32.4029 99.9099 32.4024C99.9893 32.4018 100.069 32.4083 100.146 32.4217C100.216 32.4334 100.285 32.4519 100.35 32.4766C100.409 32.4982 100.463 32.5253 100.514 32.5575L100.631 32.6625C100.662 32.7071 100.687 32.7542 100.708 32.803C100.732 32.8627 100.746 32.9246 100.75 32.9872L100.399 33.0292C100.397 32.9808 100.383 32.9333 100.357 32.8903L100.263 32.782L100.124 32.7158C100.062 32.6981 99.9968 32.6893 99.9316 32.6899C99.8599 32.6886 99.7881 32.6958 99.7191 32.7109C99.6672 32.7214 99.62 32.7432 99.5813 32.774L99.4981 32.8596L99.4698 32.9598L99.4811 33.026L99.5142 33.0825L99.568 33.1359L99.6511 33.1795L99.7598 33.2086L99.976 33.2668C100.104 33.3023 100.213 33.3313 100.3 33.3588C100.373 33.3792 100.443 33.4036 100.511 33.4315L100.646 33.5058L100.75 33.6141C100.782 33.6551 100.803 33.7005 100.814 33.7482C100.828 33.8013 100.835 33.8554 100.834 33.9099C100.835 33.967 100.826 34.0241 100.808 34.0794C100.792 34.1363 100.765 34.1908 100.729 34.2411C100.694 34.2906 100.651 34.3363 100.601 34.3768C100.548 34.419 100.487 34.4535 100.42 34.4786C100.355 34.5049 100.285 34.5238 100.213 34.5351C100.136 34.5489 100.055 34.5559 99.976 34.556C99.8514 34.5578 99.7286 34.5448 99.6087 34.5174C99.5076 34.4958 99.4141 34.4542 99.3366 34.3961C99.2639 34.3362 99.2044 34.2655 99.1629 34.1877C99.1119 34.0967 99.076 34.0006 99.0562 33.9017L99.4132 33.85Z" fill="#808184"/>
<path fill-rule="evenodd" clip-rule="evenodd" d="M101.479 33.8501C101.489 33.9133 101.508 33.9752 101.537 34.0343C101.566 34.084 101.603 34.1298 101.649 34.17C101.697 34.2078 101.754 34.2364 101.817 34.2539C101.887 34.2737 101.959 34.2829 102.033 34.2814C102.108 34.2826 102.182 34.2744 102.253 34.2572C102.311 34.2438 102.362 34.2175 102.402 34.1813L102.495 34.0762L102.528 33.9502L102.501 33.8484L102.417 33.7644C102.377 33.7431 102.333 33.7252 102.288 33.7112C102.229 33.6917 102.149 33.6707 102.049 33.6464C101.913 33.6109 101.802 33.5802 101.709 33.5528C101.616 33.5253 101.547 33.4979 101.495 33.4784L101.362 33.3912L101.262 33.2781L101.203 33.1472C101.188 33.1003 101.18 33.052 101.179 33.0034L101.197 32.8693L101.247 32.7432L101.327 32.6398L101.429 32.5478L101.531 32.4912L101.658 32.4476L101.811 32.4153C101.865 32.4073 101.919 32.4029 101.974 32.4024C102.053 32.4019 102.131 32.4084 102.209 32.4218C102.279 32.4332 102.348 32.4517 102.412 32.4767C102.47 32.4983 102.526 32.5254 102.578 32.5574L102.694 32.6626C102.725 32.7071 102.751 32.7542 102.772 32.8031C102.793 32.863 102.807 32.9247 102.814 32.9872L102.462 33.0293C102.461 32.9838 102.45 32.9389 102.43 32.8968L102.332 32.7885L102.192 32.7223C102.129 32.7043 102.064 32.6955 101.998 32.6964C101.927 32.6952 101.856 32.7022 101.787 32.7175C101.736 32.7284 101.686 32.75 101.647 32.7805L101.564 32.8661L101.537 32.9663L101.547 33.0325L101.582 33.089L101.635 33.1424L101.719 33.186L101.824 33.2151L102.042 33.2732C102.17 33.3088 102.28 33.3379 102.367 33.3654C102.439 33.3852 102.509 33.4094 102.576 33.4381L102.713 33.5124L102.818 33.6206C102.849 33.6621 102.872 33.7073 102.885 33.7548C102.895 33.8082 102.901 33.8622 102.903 33.9163C102.902 33.9734 102.893 34.0304 102.877 34.086C102.859 34.143 102.831 34.1974 102.794 34.2476C102.759 34.2968 102.717 34.3424 102.669 34.3833C102.616 34.4251 102.555 34.4595 102.489 34.485C102.423 34.5111 102.352 34.5302 102.28 34.5415C102.202 34.5554 102.123 34.5624 102.042 34.5626C101.919 34.5642 101.794 34.5511 101.674 34.5238C101.573 34.502 101.481 34.4605 101.403 34.4027C101.33 34.3427 101.272 34.272 101.229 34.1942C101.178 34.1036 101.142 34.0073 101.124 33.9082L101.479 33.8501Z" fill="#808184"/>
<path fill-rule="evenodd" clip-rule="evenodd" d="M103.334 32.449H103.695V34.517H103.334V32.449ZM103.334 31.6621H103.695V32.0644H103.334V31.6621Z" fill="#808184"/>
<path fill-rule="evenodd" clip-rule="evenodd" d="M104.525 33.8321C104.551 33.9213 104.596 34.0056 104.659 34.0809C104.714 34.1412 104.784 34.1917 104.864 34.2296C104.941 34.2636 105.027 34.2808 105.115 34.2797C105.2 34.2805 105.285 34.2634 105.359 34.2296C105.436 34.1917 105.502 34.1411 105.553 34.0809C105.62 34.0062 105.666 33.9202 105.69 33.8288C105.721 33.7127 105.736 33.594 105.734 33.475C105.736 33.3614 105.721 33.248 105.69 33.1373C105.666 33.0487 105.619 32.9655 105.553 32.8933C105.503 32.8325 105.437 32.7817 105.359 32.7447C105.285 32.7109 105.2 32.6937 105.115 32.6947C105.028 32.6932 104.941 32.7093 104.864 32.7415C104.782 32.7773 104.712 32.8282 104.659 32.8901C104.595 32.9644 104.55 33.0484 104.525 33.1373C104.493 33.2506 104.479 33.3667 104.483 33.4831C104.479 33.6004 104.493 33.7177 104.525 33.8321ZM104.191 32.9823C104.238 32.8512 104.323 32.7317 104.439 32.6348C104.526 32.5592 104.631 32.4992 104.747 32.4587C104.864 32.42 104.989 32.4004 105.115 32.4005C105.253 32.3984 105.389 32.4226 105.513 32.4713C105.639 32.52 105.748 32.592 105.835 32.6817C105.932 32.7792 106.003 32.8926 106.046 33.0146C106.095 33.1579 106.119 33.3065 106.117 33.4556C106.118 33.5748 106.105 33.6937 106.082 33.8111C106.065 33.905 106.033 33.9968 105.987 34.0842C105.952 34.1581 105.902 34.2265 105.839 34.2861C105.778 34.3456 105.706 34.3974 105.627 34.4397C105.551 34.4812 105.468 34.5117 105.381 34.5301C105.157 34.5786 104.921 34.5661 104.707 34.4946C104.582 34.4474 104.473 34.3759 104.388 34.2861C104.291 34.1867 104.219 34.0718 104.178 33.9485C104.13 33.7966 104.106 33.6402 104.108 33.4831C104.104 33.3135 104.133 33.1445 104.191 32.9823Z" fill="#808184"/>
<path fill-rule="evenodd" clip-rule="evenodd" d="M106.532 32.4525H106.872V32.7466C106.944 32.6418 107.044 32.553 107.166 32.488C107.284 32.4324 107.417 32.4029 107.552 32.4024C107.618 32.4016 107.683 32.4082 107.746 32.4217C107.805 32.4336 107.862 32.4504 107.918 32.4719L108.059 32.5478L108.161 32.6464L108.231 32.7643C108.246 32.8096 108.262 32.8565 108.273 32.9081C108.284 32.9599 108.284 32.9874 108.288 33.0455C108.292 33.1036 108.288 33.1714 108.288 33.2491V34.5206H107.924V33.262C107.924 33.1999 107.92 33.1378 107.912 33.0762C107.908 33.0312 107.897 32.9868 107.881 32.9437L107.823 32.8452L107.734 32.7709L107.612 32.7207L107.479 32.7078C107.404 32.7077 107.331 32.7198 107.261 32.7434C107.193 32.7691 107.13 32.8052 107.077 32.85C107.016 32.9093 106.973 32.9804 106.952 33.0567C106.918 33.1659 106.903 33.2785 106.906 33.3913V34.5222H106.542L106.532 32.4525Z" fill="#808184"/>
<path d="M109.347 34.1211H108.934V34.5202H109.347V34.1211Z" fill="#929497"/>
<path d="M110.209 34.1211H109.797V34.5202H110.209V34.1211Z" fill="#929497"/>
<path d="M111.074 34.1211H110.66V34.5202H111.074V34.1211Z" fill="#929497"/>
<path fill-rule="evenodd" clip-rule="evenodd" d="M113.321 33.3085L112.183 31.6621H112.668L113.247 32.5201C113.298 32.6025 113.349 32.6817 113.402 32.7657C113.454 32.8497 113.502 32.9272 113.551 33.0081C113.593 32.925 113.64 32.8442 113.694 32.7657L113.87 32.5006L114.449 31.6621H114.907L113.711 33.3085V34.517H113.325L113.321 33.3085Z" fill="#808184"/>
<path fill-rule="evenodd" clip-rule="evenodd" d="M115.1 33.8338C115.123 33.9231 115.167 34.0077 115.23 34.0827C115.286 34.1435 115.357 34.194 115.439 34.2313C115.515 34.2654 115.601 34.2827 115.688 34.2814C115.772 34.2825 115.856 34.2652 115.931 34.2313C116.007 34.194 116.073 34.1431 116.124 34.0827C116.19 34.0073 116.238 33.9216 116.263 33.8307C116.293 33.7144 116.308 33.5958 116.307 33.4769C116.308 33.3632 116.293 33.2499 116.263 33.1391C116.237 33.0509 116.189 32.9679 116.124 32.8951C116.074 32.8339 116.008 32.7831 115.931 32.7466C115.856 32.7125 115.772 32.6954 115.688 32.6964C115.601 32.6949 115.515 32.7109 115.439 32.7433C115.355 32.7785 115.285 32.8295 115.23 32.8919C115.167 32.966 115.123 33.0502 115.1 33.1391C115.068 33.2524 115.052 33.3685 115.054 33.4849C115.052 33.6024 115.068 33.7195 115.1 33.8338ZM114.762 32.984C114.81 32.8531 114.895 32.7339 115.012 32.6367C115.099 32.5614 115.203 32.5015 115.319 32.4605C115.436 32.4217 115.561 32.402 115.688 32.4024C115.825 32.4012 115.961 32.4255 116.085 32.4735C116.21 32.523 116.32 32.5946 116.408 32.6835C116.506 32.7806 116.578 32.8941 116.618 33.0163C116.668 33.1597 116.691 33.3083 116.688 33.4574C116.689 33.5765 116.679 33.6953 116.655 33.8129C116.637 33.9068 116.606 33.9986 116.561 34.0859C116.524 34.1594 116.473 34.2275 116.409 34.2879C116.349 34.3473 116.278 34.3991 116.2 34.4414C116.124 34.483 116.041 34.5136 115.954 34.5319C115.867 34.5512 115.778 34.5611 115.688 34.561C115.548 34.5631 115.409 34.5411 115.28 34.4963C115.156 34.4484 115.047 34.377 114.961 34.2879C114.864 34.1887 114.793 34.0738 114.753 33.9502C114.701 33.799 114.676 33.6422 114.679 33.4849C114.676 33.3153 114.705 33.1466 114.762 32.984Z" fill="#808184"/>
<path fill-rule="evenodd" clip-rule="evenodd" d="M118.508 34.2191C118.438 34.3236 118.339 34.4119 118.218 34.476C118.101 34.5334 117.968 34.5631 117.832 34.5617C117.77 34.5617 117.71 34.5568 117.65 34.5471C117.593 34.5341 117.537 34.5185 117.482 34.5002L117.339 34.4195L117.239 34.3225L117.169 34.2029C117.15 34.1565 117.134 34.109 117.123 34.0607C117.115 34.0175 117.109 33.9737 117.107 33.9299C117.107 33.8734 117.107 33.8086 117.107 33.7343V32.4531H117.472V33.6035C117.472 33.6924 117.472 33.765 117.472 33.8313C117.473 33.8784 117.479 33.9255 117.488 33.9719L117.544 34.0947L117.636 34.1901L117.758 34.2498L117.907 34.2692L118.065 34.2498L118.214 34.1868L118.34 34.0898L118.419 33.9654C118.44 33.9131 118.454 33.8588 118.46 33.8039C118.473 33.7274 118.48 33.6502 118.479 33.5728V32.4531H118.85V34.5213H118.517L118.508 34.2191Z" fill="#808184"/>
<path fill-rule="evenodd" clip-rule="evenodd" d="M119.4 32.4525H119.733V32.7676C119.764 32.7032 119.803 32.6415 119.848 32.5834C119.875 32.5421 119.91 32.5057 119.955 32.4768L120.071 32.4218L120.192 32.4023C120.255 32.4033 120.317 32.4143 120.374 32.4347C120.443 32.4545 120.508 32.4834 120.567 32.5204L120.445 32.8435L120.308 32.7869L120.177 32.7676L120.064 32.7853L119.968 32.8354L119.881 32.9194L119.831 33.0261C119.806 33.089 119.788 33.1539 119.777 33.2199C119.777 33.2895 119.763 33.3606 119.763 33.4332V34.5158H119.4V32.4525Z" fill="#808184"/>
<path fill-rule="evenodd" clip-rule="evenodd" d="M123.345 33.0615H124.595V34.1199C124.503 34.1917 124.406 34.2576 124.303 34.317C124.208 34.3714 124.106 34.4178 124 34.4559L123.922 34.4818L123.845 34.4996C123.767 34.5179 123.689 34.5331 123.61 34.5448C123.529 34.5554 123.449 34.5603 123.368 34.5594C123.229 34.5595 123.09 34.5454 122.954 34.5173C122.822 34.49 122.695 34.4465 122.578 34.388C122.46 34.3286 122.355 34.2532 122.267 34.1652C122.173 34.074 122.098 33.9715 122.041 33.8614C121.981 33.7444 121.935 33.6226 121.906 33.4979C121.874 33.3665 121.859 33.2327 121.86 33.0988C121.859 32.9626 121.874 32.8267 121.906 32.6933C121.937 32.5655 121.981 32.4405 122.041 32.32C122.098 32.2048 122.171 32.0962 122.261 31.9968C122.343 31.9078 122.444 31.8323 122.559 31.7739C122.673 31.7162 122.796 31.6711 122.924 31.6397C123.059 31.6114 123.199 31.5974 123.339 31.5977C123.443 31.5975 123.545 31.6056 123.647 31.6219C123.741 31.6406 123.834 31.6677 123.922 31.7028C124.005 31.7332 124.083 31.7728 124.153 31.8207C124.219 31.8673 124.276 31.9218 124.325 31.9823C124.377 32.0493 124.42 32.1215 124.452 32.1971C124.49 32.2821 124.52 32.369 124.545 32.4573L124.191 32.5494C124.174 32.4836 124.149 32.4192 124.118 32.3571C124.094 32.3042 124.064 32.2538 124.027 32.2069L123.905 32.097C123.854 32.062 123.8 32.0317 123.741 32.0065C123.68 31.9822 123.614 31.9644 123.547 31.9531C123.477 31.9407 123.407 31.9347 123.335 31.9354C123.25 31.9345 123.166 31.9403 123.082 31.9531C123.008 31.9653 122.936 31.9848 122.867 32.0114C122.807 32.0379 122.75 32.0687 122.695 32.1035L122.553 32.2198L122.448 32.3523C122.416 32.4 122.389 32.4503 122.368 32.5025C122.292 32.6878 122.253 32.882 122.252 33.0777C122.251 33.1952 122.262 33.3124 122.285 33.4284C122.304 33.5274 122.339 33.6241 122.389 33.716C122.428 33.7972 122.484 33.8726 122.553 33.9389C122.62 34.003 122.698 34.0576 122.786 34.1004C122.869 34.1429 122.959 34.1745 123.053 34.1942C123.145 34.2155 123.239 34.2263 123.335 34.2265C123.42 34.2259 123.504 34.2173 123.586 34.2007C123.67 34.1846 123.751 34.1613 123.83 34.1312C123.906 34.1043 123.979 34.0714 124.048 34.0326C124.103 34.0022 124.154 33.9676 124.201 33.9293V33.3977H123.335L123.345 33.0615Z" fill="#808184"/>
<path fill-rule="evenodd" clip-rule="evenodd" d="M125.111 32.4525H125.441V32.7676C125.475 32.7044 125.513 32.643 125.555 32.5834C125.585 32.5424 125.622 32.5062 125.667 32.4768L125.781 32.4218L125.903 32.4023C125.966 32.4032 126.029 32.4142 126.086 32.4347C126.156 32.4548 126.221 32.4837 126.28 32.5204L126.158 32.8435L126.021 32.7869L125.89 32.7676L125.779 32.7853L125.681 32.8354L125.596 32.9194L125.541 33.0261C125.52 33.0911 125.504 33.1576 125.497 33.2248C125.486 33.2955 125.48 33.3668 125.48 33.4381V34.5207H125.118L125.111 32.4525Z" fill="#808184"/>
<path fill-rule="evenodd" clip-rule="evenodd" d="M126.77 33.834C126.796 33.9231 126.84 34.0074 126.901 34.0828C126.958 34.1435 127.028 34.1941 127.108 34.2315C127.185 34.2643 127.27 34.2815 127.356 34.2815C127.442 34.2815 127.527 34.2643 127.603 34.2315C127.679 34.1936 127.745 34.143 127.796 34.0828C127.863 34.0079 127.908 33.9219 127.932 33.8307C127.964 33.7149 127.98 33.596 127.978 33.477C127.979 33.363 127.963 33.2496 127.93 33.1392C127.906 33.0507 127.86 32.9675 127.794 32.8952C127.744 32.8344 127.678 32.7836 127.601 32.7466C127.524 32.7123 127.438 32.695 127.35 32.6966C127.264 32.6952 127.178 32.7112 127.101 32.7434C127.018 32.7787 126.948 32.8296 126.894 32.892C126.834 32.967 126.792 33.0509 126.77 33.1392C126.739 33.2525 126.723 33.3686 126.724 33.485C126.723 33.6025 126.738 33.7196 126.77 33.834ZM126.432 32.9842C126.48 32.853 126.565 32.7336 126.681 32.6367C126.769 32.5615 126.873 32.5016 126.988 32.4606C127.103 32.4229 127.226 32.4033 127.35 32.4024C127.488 32.4008 127.624 32.4252 127.748 32.4739C127.873 32.5226 127.984 32.5943 128.071 32.6836C128.168 32.7815 128.24 32.8947 128.283 33.0165C128.33 33.16 128.354 33.3085 128.35 33.4575C128.352 33.5766 128.341 33.6956 128.318 33.813C128.3 33.907 128.269 33.9986 128.225 34.0861C128.188 34.1596 128.137 34.2277 128.074 34.288C128.013 34.3468 127.942 34.3984 127.864 34.4415C127.788 34.4832 127.704 34.5137 127.616 34.532C127.393 34.5805 127.156 34.568 126.942 34.4965C126.818 34.4489 126.709 34.3775 126.624 34.288C126.527 34.1888 126.456 34.0738 126.417 33.9504C126.365 33.7992 126.339 33.6423 126.343 33.485C126.342 33.3154 126.371 33.1464 126.43 32.9842H126.432Z" fill="#808184"/>
<path fill-rule="evenodd" clip-rule="evenodd" d="M128.509 32.4531H128.895L129.24 33.6471L129.37 34.093C129.376 34.0512 129.384 34.0096 129.395 33.9687C129.412 33.8976 129.438 33.7958 129.473 33.6665L129.818 32.4531H130.188L130.512 33.6552L130.617 34.0511L130.744 33.652L131.105 32.4531H131.459L130.794 34.5213H130.408L130.068 33.2852L129.983 32.9314L129.55 34.5213H129.164L128.509 32.4531Z" fill="#808184"/>
<path fill-rule="evenodd" clip-rule="evenodd" d="M132.6 34.5186L132.455 34.5331H132.328C132.269 34.5347 132.212 34.5309 132.154 34.5217L132.017 34.4813L131.927 34.4119L131.866 34.323C131.85 34.2728 131.839 34.2214 131.833 34.1694C131.833 34.1017 131.833 34.0079 131.833 33.9126V32.7186H131.563V32.4504H131.833V31.9382L132.18 31.7266V32.4504H132.542V32.7186H132.18V33.9368C132.177 33.9772 132.177 34.0177 132.18 34.0581L132.195 34.1292L132.219 34.1647L132.254 34.1937L132.313 34.2147H132.382H132.448L132.537 34.2067L132.6 34.5186Z" fill="#808184"/>
<path fill-rule="evenodd" clip-rule="evenodd" d="M132.89 31.6621H133.254V32.6864C133.329 32.5975 133.428 32.5244 133.543 32.4731C133.651 32.4232 133.773 32.3976 133.897 32.3988C133.972 32.399 134.048 32.4072 134.121 32.4231C134.188 32.4403 134.253 32.4629 134.314 32.491C134.371 32.5205 134.421 32.5577 134.462 32.6008C134.504 32.6438 134.537 32.6916 134.562 32.743C134.594 32.8046 134.615 32.87 134.625 32.937C134.639 33.0263 134.646 33.1166 134.645 33.2067V34.517H134.281V33.2067C134.283 33.13 134.273 33.0534 134.25 32.979C134.236 32.9201 134.206 32.8649 134.161 32.8173L134.015 32.7317C133.953 32.7097 133.887 32.6992 133.821 32.701L133.662 32.7205L133.512 32.7803L133.39 32.8771L133.311 32.9999C133.289 33.0522 133.273 33.1064 133.265 33.1615C133.253 33.2342 133.247 33.3077 133.248 33.3812V34.5123H132.884L132.89 31.6621Z" fill="#808184"/>
<path d="M40.7444 38.2995H136.945V38.1152H40.7444" fill="#929497"/>
<path d="M40.7444 40.2431H136.945V40.0605H40.7444" fill="#929497"/>
<path d="M40.7444 42.1881H136.945V42.0039H40.7444" fill="#929497"/>
<path d="M40.7444 44.1314H136.945V43.9473H40.7444" fill="#929497"/>
<path d="M40.7444 46.0808H136.945V45.8965H40.7444" fill="#929497"/>
<path d="M40.7444 48.0244H136.945V47.8418H40.7444" fill="#929497"/>
<path d="M40.7444 49.9697H136.945V49.7871H40.7444" fill="#929497"/>
<path d="M40.7444 51.915H136.945V51.7324H40.7444" fill="#929497"/>
<path d="M40.7444 53.86H136.945V53.6758H40.7444" fill="#929497"/>
<path d="M40.7444 55.8034H136.945V55.6191H40.7444" fill="#929497"/>
<path d="M40.7444 57.7506H136.945V57.5664H40.7444" fill="#929497"/>
<path d="M43.2112 34.5645V59.7184H43.4312V34.5645" fill="#929497"/>
<path d="M45.3845 34.5645V59.7184H45.6065V34.5645" fill="#929497"/>
<path d="M47.5593 34.5645V59.7184H47.7803V34.5645" fill="#929497"/>
<path d="M49.7336 34.5645V59.7184H49.9537V34.5645" fill="#929497"/>
<path d="M51.9104 34.5645V59.7184H52.1305V34.5645" fill="#929497"/>
<path d="M54.0837 34.5645V59.7184H54.3038V34.5645" fill="#929497"/>
<path d="M56.2566 34.5645V59.7184H56.4766V34.5645" fill="#929497"/>
<path d="M58.4319 34.5645V59.7184H58.6529V34.5645" fill="#929497"/>
<path d="M60.605 34.5645V59.7184H60.826V34.5645" fill="#929497"/>
<path d="M62.7793 34.5645V59.7184H62.9994V34.5645" fill="#929497"/>
<path d="M64.9558 34.5645V59.7184H65.1739V34.5645" fill="#929497"/>
<path d="M67.1274 34.5645V59.7184H67.3475V34.5645" fill="#929497"/>
<path d="M69.3022 34.5645V59.7184H69.5223V34.5645" fill="#929497"/>
<path d="M71.4758 34.5645V59.7184H71.6959V34.5645" fill="#929497"/>
<path d="M73.6467 34.5645V59.7184H73.8687V34.5645" fill="#929497"/>
<path d="M75.824 34.5645V59.7184H76.045V34.5645" fill="#929497"/>
<path d="M77.9998 34.5645V59.7184H78.2198V34.5645" fill="#929497"/>
<path d="M80.1711 34.5645V59.7184H80.3931V34.5645" fill="#929497"/>
<path d="M82.3459 34.5645V59.7184H82.5679V34.5645" fill="#929497"/>
<path d="M84.5195 34.5645V59.7184H84.7396V34.5645" fill="#929497"/>
<path d="M86.696 34.5645V59.7184H86.917V34.5645" fill="#929497"/>
<path d="M88.8696 34.5645V59.7184H89.0906V34.5645" fill="#929497"/>
<path d="M91.0435 34.5645V59.7184H91.2635V34.5645" fill="#929497"/>
<path d="M93.2168 34.5645V59.7184H93.4368V34.5645" fill="#929497"/>
<path d="M95.3899 34.5645V59.7184H95.6099V34.5645" fill="#929497"/>
<path d="M97.5649 34.5645V59.7184H97.785V34.5645" fill="#929497"/>
<path d="M99.74 34.5645V59.7184H99.9619V34.5645" fill="#929497"/>
<path d="M101.913 34.5645V59.7184H102.136V34.5645" fill="#929497"/>
<path d="M104.089 34.5645V59.7184H104.311V34.5645" fill="#929497"/>
<path d="M106.264 34.5645V59.7184H106.484V34.5645" fill="#929497"/>
<path d="M108.437 34.5645V59.7184H108.657V34.5645" fill="#929497"/>
<path d="M110.612 34.5645V59.7184H110.832V34.5645" fill="#929497"/>
<path d="M112.785 34.5645V59.7184H113.005V34.5645" fill="#929497"/>
<path d="M114.96 34.5645V59.7184H115.18V34.5645" fill="#929497"/>
<path d="M117.134 34.5645V59.7184H117.355V34.5645" fill="#929497"/>
<path d="M119.31 34.5645V59.7184H119.53V34.5645" fill="#929497"/>
<path d="M121.483 34.5645V59.7184H121.703V34.5645" fill="#929497"/>
<path d="M123.66 34.5645V59.7184H123.88V34.5645" fill="#929497"/>
<path d="M125.829 34.5645V59.7184H126.051V34.5645" fill="#929497"/>
<path d="M128.006 34.5645V59.7184H128.227V34.5645" fill="#929497"/>
<path d="M130.179 34.5645V59.7184H130.398V34.5645" fill="#929497"/>
<path d="M132.354 34.5645V59.7184H132.574V34.5645" fill="#929497"/>
<path d="M134.529 34.5645V59.7184H134.751V34.5645" fill="#929497"/>
<path fill-rule="evenodd" clip-rule="evenodd" d="M43.2036 46.0945C43.2575 45.6728 43.3293 45.2431 43.4161 44.8019C43.8581 42.6848 44.8819 40.6826 46.4063 38.953C47.9608 37.1564 50.4372 36.1616 53.8343 35.9688C54.454 35.9755 55.0715 36.0296 55.6798 36.1304C56.4174 36.2516 57.137 36.4446 57.8218 36.7056C58.9485 37.1579 60.0195 37.8855 61.0348 38.8884C62.0491 39.8912 62.7962 41.3168 63.2751 43.1652H59.9695C59.4945 41.5872 58.6888 40.4148 57.5535 39.6477C56.4174 38.8808 55.2001 38.4974 53.9005 38.4974H53.6549C53.584 38.4973 53.5132 38.5077 53.4461 38.528C51.7367 38.6444 50.1633 39.407 48.7249 40.8159C47.2865 42.2248 46.5235 44.245 46.4356 46.8765C46.4356 50.0402 47.1609 52.3253 48.6106 53.7321C50.0613 55.1388 51.6498 55.8514 53.3781 55.8697H53.4792C55.166 55.8697 56.7234 55.3242 58.1523 54.233C59.5803 53.1419 60.3595 51.6919 60.4898 49.8834H63.7926C63.7482 50.1403 63.7001 50.3989 63.6462 50.6638C63.5924 50.9288 63.5224 51.2019 63.4355 51.4717C62.8386 53.2741 61.7176 54.925 60.1725 56.2769C58.5613 57.7321 56.5326 58.4598 54.0855 58.4598C50.3852 58.5588 47.6265 57.4817 45.8094 55.2283C43.9923 52.9748 43.0856 50.3482 43.0894 47.3484C43.1111 46.9331 43.1498 46.5178 43.2036 46.0945Z" fill="#0B509D"/>
<path fill-rule="evenodd" clip-rule="evenodd" d="M75.7897 39.9099L68.8755 57.7832H65.3018L73.7422 36.1953H77.5728L86.241 57.7832H82.671L75.7897 39.9099Z" fill="#80807C"/>
<path fill-rule="evenodd" clip-rule="evenodd" d="M89.3418 36.1953H94.0839L100.981 54.3044L107.875 36.1953H112.652V57.7832H109.187V40.5901L102.561 57.7832H99.3981L92.7739 40.8244V57.7832H89.3418V36.1953Z" fill="#0B509D"/>
<path fill-rule="evenodd" clip-rule="evenodd" d="M119.292 50.8338C119.292 52.5831 119.936 53.8756 121.224 54.7116C122.441 55.5256 123.935 55.9957 125.491 56.0541H125.752C127.095 56.0648 128.414 55.7633 129.564 55.1833C130.11 54.9302 130.575 54.5722 130.924 54.1387C131.271 53.7051 131.49 53.2087 131.563 52.6903C131.582 52.6186 131.592 52.5455 131.594 52.4721V52.2507C131.594 50.8742 130.961 49.9446 129.695 49.462C128.304 48.948 126.852 48.5575 125.364 48.2971C125.171 48.2583 124.977 48.2243 124.811 48.1936C124.645 48.1629 124.464 48.1306 124.292 48.0918C122.438 47.7407 120.665 47.1388 119.043 46.3097C117.476 45.5029 116.788 43.9092 116.982 41.5288C117.11 40.0208 117.879 38.7136 119.288 37.6074C120.697 36.5012 122.74 35.955 125.418 35.969C128.1 35.969 130.247 36.5291 131.859 37.6494C133.471 38.7696 134.215 40.3691 134.092 42.4481H131.04V42.125C131.04 40.9056 130.472 39.9723 129.338 39.3249C128.233 38.6854 126.931 38.3262 125.588 38.2908H125.395C124.109 38.2832 122.849 38.5965 121.777 39.1908C120.683 39.7897 120.103 40.7279 120.038 42.0054C120.094 42.4873 120.306 42.9471 120.652 43.3355C120.998 43.7238 121.463 44.0259 121.999 44.2093C123.271 44.671 124.591 45.0319 125.944 45.2869C126.202 45.3468 126.474 45.4049 126.755 45.4664L127.601 45.6424C129.32 46.0038 130.965 46.5748 132.485 47.3373C133.99 48.0913 134.872 49.4141 135.131 51.3056C135.26 53.642 134.329 55.4192 132.339 56.6375C130.424 57.8342 128.106 58.4952 125.715 58.5263H125.621C123.251 58.5285 120.949 57.8683 119.079 56.6504C117.1 55.402 116.143 53.4631 116.207 50.8338H119.292Z" fill="#0B509D"/>
<path fill-rule="evenodd" clip-rule="evenodd" d="M86.0418 42.6926C85.8916 42.627 85.7169 42.613 85.5554 42.6538L82.298 42.9865C82.179 43.0314 82.0864 43.1137 82.0411 43.2155C81.9948 43.3173 81.9986 43.4302 82.0524 43.5295C82.1082 43.6282 82.2064 43.7058 82.3273 43.7476C82.4472 43.7893 82.5823 43.7923 82.706 43.7557L84.2332 43.6313L82.128 45.6299L78.2369 45.8416L78.0886 46.0468L76.7362 48.0002H72.2737L72.1273 48.1618L70.7748 49.6983H66.2642L66.1206 49.8825L64.465 52.08C64.43 52.1246 64.4045 52.1747 64.3923 52.2274C64.38 52.2801 64.38 52.3342 64.3923 52.3869C64.4045 52.4396 64.43 52.4897 64.4659 52.5343C64.5009 52.579 64.5472 52.6173 64.601 52.647C64.7087 52.707 64.8418 52.7288 64.9693 52.7076C65.0968 52.6865 65.2092 52.6241 65.2829 52.5339L66.7912 50.5191H71.2773L71.4237 50.3575L72.7761 48.8226H77.316L77.4549 48.6158L78.8073 46.6607L82.5898 46.4071L82.7079 46.307L85.1474 44.0982L85.0973 45.7608C85.0917 45.8146 85.0992 45.8688 85.119 45.9201C85.1389 45.9716 85.17 46.0192 85.2116 46.0603C85.2532 46.1016 85.3042 46.1355 85.3618 46.1601C85.4194 46.1848 85.4817 46.1999 85.5459 46.2043C85.6102 46.2088 85.6753 46.2026 85.7367 46.1861C85.7981 46.1696 85.8548 46.1432 85.9048 46.1084C85.9539 46.0734 85.9945 46.0308 86.0238 45.9829C86.0531 45.9348 86.071 45.8825 86.0767 45.8287L86.2486 43.0625C86.2552 42.9912 86.2401 42.9194 86.2042 42.8545C86.1674 42.7895 86.1117 42.7338 86.0418 42.6926Z" fill="#0B509D"/>
</g>
</g>
<path d="M234.773 54.6987H231.829L225.778 45.6232V54.6987H223.539V36.7656H225.778V45.5801L231.522 36.7656H234.25L228.399 45.4487L234.773 54.6987Z" fill="#2057A6"/>
<path d="M236.019 54.6987V36.7656H245.068V39.2685H238.26V45.1017H244.238V47.5821H238.26V54.6987H236.019Z" fill="#2057A6"/>
<path d="M247.064 54.6987V36.7656H249.303V54.6987H247.064Z" fill="#2057A6"/>
<path d="M252.147 54.6875V36.3828L262.477 48.9836C262.466 48.0699 262.453 47.187 262.441 46.339C262.43 45.491 262.423 44.5794 262.423 43.6082V36.7545H264.609V55.1454L254.295 42.4994C254.308 43.4131 254.319 44.3104 254.331 45.1872C254.343 46.066 254.35 46.9611 254.35 47.8748V54.6875H252.147Z" fill="#2057A6"/>
<path d="M270.588 54.6987V39.2685H266.289V36.7656H277.162V39.2685H272.846V54.6987H270.588Z" fill="#2057A6"/>
<path d="M278.849 54.6987V36.7656H287.916V39.2458H281.124V44.338H286.778V46.7752H281.124V52.2163H288.186V54.6987H278.849Z" fill="#2057A6"/>
<path d="M297.02 55.0381C295.913 55.0381 294.873 54.798 293.905 54.3196C292.935 53.8412 292.09 53.1841 291.368 52.3504C290.645 51.5168 290.076 50.5333 289.66 49.402C289.245 48.2706 289.037 47.0448 289.037 45.7246C289.037 44.4044 289.245 43.1786 289.66 42.0473C290.076 40.9159 290.645 39.9324 291.368 39.0988C292.09 38.2652 292.935 37.6123 293.905 37.1399C294.875 36.6677 295.919 36.4316 297.038 36.4316C298.098 36.4316 299.037 36.6061 299.857 36.9532C300.675 37.3022 301.344 37.6862 301.862 38.1071V41.1972C301.573 40.8646 301.242 40.5545 300.869 40.2733C300.496 39.9899 300.098 39.7475 299.676 39.5443C299.255 39.3411 298.82 39.1851 298.366 39.0762C297.914 38.9674 297.466 38.9139 297.02 38.9139C296.2 38.9139 295.445 39.0885 294.753 39.4355C294.062 39.7845 293.466 40.2671 292.966 40.8831C292.467 41.499 292.074 42.2218 291.792 43.0492C291.51 43.8768 291.368 44.7678 291.368 45.7266C291.368 46.6855 291.51 47.5767 291.792 48.4041C292.074 49.2315 292.467 49.9522 292.966 50.5703C293.466 51.1862 294.062 51.6687 294.753 52.0178C295.445 52.3669 296.202 52.5393 297.02 52.5393C297.935 52.5393 298.822 52.3299 299.685 51.9089C300.545 51.4881 301.271 50.944 301.861 50.2766V53.3668C301.319 53.7877 300.642 54.1717 299.829 54.5207C299.015 54.8636 298.079 55.0381 297.02 55.0381Z" fill="#2057A6"/>
<path d="M304.348 54.6987V36.7656H306.587V44.3174H313.902V36.7656H316.141V54.6987H313.902V46.7977H306.587V54.6987H304.348Z" fill="#2057A6"/>
<path d="M216.828 58.9536L221.033 58.5449L221.284 58.8796C221.393 59.0254 221.301 59.2554 221.139 59.2451L216.828 58.9536Z" fill="url(#paint1_linear_1894_3718)"/>
<path d="M204.702 31.9473L207.599 35.4111L203.636 52.3237L199.744 53.6357L204.702 31.9473Z" fill="url(#paint2_linear_1894_3718)"/>
<path d="M194.217 60.1413L195.116 55.2012L209.571 50.3145L212.709 54.0514L194.217 60.1413Z" fill="url(#paint3_linear_1894_3718)"/>
<path d="M206.469 40.3027L221.038 58.5376L216.834 58.9441L205.299 45.2079L206.469 40.3027Z" fill="url(#paint4_linear_1894_3718)"/>
<path opacity="0.25" d="M195.116 55.2012L209.572 50.3145L212.709 54.0514L195.116 55.2012Z" fill="url(#paint5_linear_1894_3718)"/>
<path opacity="0.25" d="M204.702 31.9473L203.636 52.3237L199.744 53.6357L204.702 31.9473Z" fill="url(#paint6_linear_1894_3718)"/>
<path opacity="0.25" d="M206.469 40.3027L216.834 58.9441L205.299 45.2079L206.469 40.3027Z" fill="url(#paint7_linear_1894_3718)"/>
<path d="M207.603 35.4025L205.123 31.3699C205.03 31.22 204.835 31.2692 204.799 31.4499L204.706 31.9365L207.603 35.4025Z" fill="url(#paint8_linear_1894_3718)"/>
<path d="M195.118 55.1973L194.217 60.1373L193.851 60.2852C193.707 60.3427 193.57 60.1722 193.622 59.9998L195.118 55.1973Z" fill="url(#paint9_linear_1894_3718)"/>
<path d="M224.411 56.7282V57.4283H225.349V58.0792H224.411V58.8388H225.471V59.5144H223.713V56.0547H225.471V56.7302H224.411V56.7282Z" fill="#1C2D47"/>
<path d="M228.913 59.5124L228.328 58.453L227.813 59.5124H227.02L227.94 57.7528L226.999 56.0527H227.813L228.389 57.0978L228.898 56.0527H229.692L228.78 57.7979L229.729 59.5124H228.913Z" fill="#1C2D47"/>
<path d="M233.381 57.7178C233.304 57.8841 233.187 58.0176 233.03 58.1203C232.872 58.2229 232.675 58.2722 232.44 58.2722H232.008V59.5144H231.31V56.0547H232.442C232.671 56.0547 232.865 56.1019 233.023 56.1985C233.181 56.2929 233.3 56.4243 233.379 56.5926C233.459 56.761 233.499 56.952 233.499 57.1696C233.495 57.3688 233.456 57.5515 233.381 57.7178ZM232.686 57.4878C232.751 57.4118 232.785 57.3051 232.785 57.1675C232.785 57.03 232.753 56.9233 232.686 56.8472C232.621 56.7713 232.52 56.7343 232.388 56.7343H232.008V57.6007H232.388C232.52 57.6007 232.62 57.5638 232.686 57.4878Z" fill="#1C2D47"/>
<path d="M235.785 56.7282V57.4283H236.722V58.0792H235.785V58.8388H236.845V59.5144H235.086V56.0547H236.845V56.7302H235.785V56.7282Z" fill="#1C2D47"/>
<path d="M239.983 59.5124L239.387 58.2066H239.22V59.5124H238.521V56.0527H239.695C239.922 56.0527 240.115 56.0999 240.275 56.1964C240.435 56.2929 240.555 56.4222 240.633 56.5886C240.711 56.7549 240.752 56.9397 240.752 57.143C240.752 57.373 240.697 57.5783 240.59 57.759C240.483 57.9397 240.324 58.067 240.113 58.143L240.776 59.5124H239.983ZM239.218 57.6111H239.651C239.779 57.6111 239.877 57.5741 239.939 57.4982C240.004 57.4222 240.034 57.3155 240.034 57.1779C240.034 57.0464 240.002 56.9438 239.939 56.8678C239.875 56.7918 239.779 56.7549 239.651 56.7549H239.218V57.6111Z" fill="#1C2D47"/>
<path d="M243.113 56.0547V59.5144H242.414V56.0547H243.113Z" fill="#1C2D47"/>
<path d="M245.552 56.7282V57.4283H246.489V58.0792H245.552V58.8388H246.612V59.5144H244.853V56.0547H246.612V56.7302H245.552V56.7282Z" fill="#1C2D47"/>
<path d="M250.854 59.5124H250.155L248.987 57.3791V59.5124H248.288V56.0527H248.987L250.155 58.1963V56.0527H250.854V59.5124Z" fill="#1C2D47"/>
<path d="M252.656 56.8734C252.779 56.6066 252.95 56.3971 253.17 56.2472C253.389 56.0973 253.637 56.0234 253.916 56.0234C254.256 56.0234 254.548 56.1323 254.791 56.3479C255.033 56.5656 255.196 56.8612 255.279 57.2348H254.511C254.452 57.0911 254.372 56.9803 254.267 56.9042C254.161 56.8283 254.041 56.7913 253.909 56.7913C253.694 56.7913 253.518 56.8817 253.385 57.0624C253.253 57.243 253.185 57.4854 253.185 57.7871C253.185 58.089 253.251 58.3312 253.385 58.512C253.518 58.6927 253.694 58.783 253.909 58.783C254.041 58.783 254.161 58.746 254.267 58.67C254.372 58.5941 254.452 58.4853 254.511 58.3395H255.279C255.196 58.7131 255.035 59.0089 254.791 59.2245C254.549 59.44 254.256 59.5467 253.916 59.5467C253.637 59.5467 253.389 59.4729 253.17 59.3229C252.95 59.1731 252.779 58.9658 252.656 58.6987C252.533 58.4319 252.473 58.128 252.473 57.7871C252.473 57.4464 252.533 57.1425 252.656 56.8734Z" fill="#1C2D47"/>
<path d="M257.63 56.7282V57.4283H258.567V58.0792H257.63V58.8388H258.69V59.5144H256.931V56.0547H258.69V56.7302H257.63V56.7282Z" fill="#1C2D47"/>
<path d="M264.53 56.0547V56.7302H263.77V59.5144H263.072V56.7302H262.312V56.0547H264.53Z" fill="#1C2D47"/>
<path d="M267.57 59.5124L266.974 58.2066H266.807V59.5124H266.108V56.0527H267.282C267.508 56.0527 267.701 56.0999 267.862 56.1964C268.021 56.2929 268.141 56.4222 268.219 56.5886C268.297 56.7549 268.338 56.9397 268.338 57.143C268.338 57.373 268.284 57.5783 268.176 57.759C268.069 57.9397 267.911 58.067 267.7 58.143L268.362 59.5124H267.57ZM266.805 57.6111H267.238C267.366 57.6111 267.463 57.5741 267.525 57.4982C267.59 57.4222 267.621 57.3155 267.621 57.1779C267.621 57.0464 267.589 56.9438 267.525 56.8678C267.461 56.7918 267.366 56.7549 267.238 56.7549H266.805V57.6111Z" fill="#1C2D47"/>
<path d="M271.788 58.9026H270.717L270.545 59.5144H269.812L270.851 56.0547H271.66L272.7 59.5144H271.96L271.788 58.9026ZM271.608 58.2517L271.251 56.9848L270.901 58.2517H271.608Z" fill="#1C2D47"/>
<path d="M276.809 59.5124H276.111L274.942 57.3791V59.5124H274.243V56.0527H274.942L276.111 58.1963V56.0527H276.809V59.5124Z" fill="#1C2D47"/>
<path d="M279.014 59.4226C278.848 59.3405 278.715 59.2193 278.616 59.057C278.517 58.8969 278.465 58.7019 278.459 58.476H279.204C279.215 58.6034 279.251 58.7019 279.315 58.7696C279.378 58.8373 279.459 58.8702 279.56 58.8702C279.664 58.8702 279.745 58.8415 279.806 58.7841C279.865 58.7265 279.895 58.6465 279.895 58.5458C279.895 58.4596 279.872 58.3898 279.824 58.3344C279.776 58.2789 279.719 58.2317 279.648 58.1968C279.579 58.1598 279.48 58.1188 279.352 58.0736C279.166 58.0037 279.014 57.936 278.899 57.8662C278.782 57.7964 278.681 57.6958 278.596 57.5603C278.51 57.4247 278.469 57.2502 278.469 57.0326C278.469 56.7102 278.567 56.4577 278.759 56.277C278.954 56.0942 279.206 56.0039 279.516 56.0039C279.832 56.0039 280.086 56.0942 280.281 56.277C280.474 56.4597 280.577 56.7123 280.591 57.0387H279.834C279.829 56.9278 279.795 56.8396 279.732 56.776C279.669 56.7123 279.589 56.6794 279.49 56.6794C279.404 56.6794 279.336 56.7061 279.286 56.7616C279.234 56.8149 279.207 56.893 279.207 56.9956C279.207 57.1065 279.251 57.1948 279.338 57.2564C279.425 57.318 279.562 57.3858 279.747 57.4576C279.933 57.5336 280.083 57.6054 280.199 57.6753C280.315 57.745 280.416 57.8436 280.499 57.975C280.582 58.1064 280.626 58.2748 280.626 58.4821C280.626 58.6793 280.584 58.858 280.5 59.0201C280.417 59.1803 280.296 59.3096 280.139 59.4041C279.981 59.4985 279.795 59.5478 279.579 59.5478C279.369 59.5458 279.181 59.5047 279.014 59.4226Z" fill="#1C2D47"/>
<path d="M284.154 56.0547V56.7302H282.986V57.4591H283.861V58.114H282.986V59.5144H282.287V56.0547H284.154Z" fill="#1C2D47"/>
<path d="M286.365 59.3198C286.139 59.1678 285.961 58.9583 285.83 58.6874C285.697 58.4163 285.632 58.1124 285.632 57.7736C285.632 57.4349 285.698 57.131 285.83 56.862C285.962 56.5931 286.139 56.3816 286.365 56.2317C286.589 56.0798 286.837 56.0059 287.108 56.0059C287.379 56.0059 287.625 56.0818 287.851 56.2317C288.075 56.3816 288.252 56.5931 288.382 56.862C288.512 57.131 288.576 57.4349 288.576 57.7736C288.576 58.1124 288.512 58.4163 288.381 58.6874C288.249 58.9583 288.072 59.1698 287.849 59.3198C287.625 59.4717 287.379 59.5456 287.109 59.5456C286.839 59.5456 286.589 59.4696 286.365 59.3198ZM287.658 58.5006C287.796 58.3157 287.864 58.0735 287.864 57.7716C287.864 57.4657 287.796 57.2214 287.658 57.0407C287.52 56.8579 287.338 56.7676 287.108 56.7676C286.876 56.7676 286.692 56.8578 286.554 57.0386C286.415 57.2193 286.348 57.4637 286.348 57.7736C286.348 58.0796 286.415 58.3239 286.554 58.5047C286.692 58.6874 286.876 58.7777 287.108 58.7777C287.335 58.7777 287.52 58.6853 287.658 58.5006Z" fill="#1C2D47"/>
<path d="M291.657 59.5124L291.06 58.2066H290.894V59.5124H290.195V56.0527H291.368C291.594 56.0527 291.788 56.0999 291.948 56.1964C292.107 56.2929 292.227 56.4222 292.306 56.5886C292.384 56.7549 292.425 56.9397 292.425 57.143C292.425 57.373 292.37 57.5783 292.262 57.759C292.155 57.9397 291.998 58.067 291.786 58.143L292.448 59.5124H291.657ZM290.891 57.6111H291.324C291.452 57.6111 291.549 57.5741 291.611 57.4982C291.677 57.4222 291.708 57.3155 291.708 57.1779C291.708 57.0464 291.675 56.9438 291.611 56.8678C291.547 56.7918 291.452 56.7549 291.324 56.7549H290.891V57.6111Z" fill="#1C2D47"/>
<path d="M297.334 56.0547V59.5144H296.636V57.4406L295.994 59.5144H295.429L294.784 57.4345V59.5144H294.085V56.0547H294.911L295.717 58.4487L296.515 56.0547H297.334Z" fill="#1C2D47"/>
<path d="M300.853 58.9026H299.781L299.609 59.5144H298.876L299.915 56.0547H300.724L301.764 59.5144H301.025L300.853 58.9026ZM300.673 58.2517L300.317 56.9848L299.967 58.2517H300.673Z" fill="#1C2D47"/>
<path d="M305.368 56.0547V56.7302H304.609V59.5144H303.91V56.7302H303.149V56.0547H305.368Z" fill="#1C2D47"/>
<path d="M307.653 56.0547V59.5144H306.954V56.0547H307.653Z" fill="#1C2D47"/>
<path d="M309.997 59.3198C309.772 59.1678 309.593 58.9583 309.462 58.6874C309.328 58.4163 309.264 58.1124 309.264 57.7736C309.264 57.4349 309.331 57.131 309.462 56.862C309.595 56.5931 309.772 56.3816 309.997 56.2317C310.221 56.0798 310.469 56.0059 310.739 56.0059C311.01 56.0059 311.258 56.0818 311.483 56.2317C311.707 56.3816 311.885 56.5931 312.014 56.862C312.144 57.131 312.209 57.4349 312.209 57.7736C312.209 58.1124 312.144 58.4163 312.012 58.6874C311.881 58.9583 311.705 59.1698 311.481 59.3198C311.258 59.4717 311.01 59.5456 310.741 59.5456C310.472 59.5456 310.221 59.4696 309.997 59.3198ZM311.288 58.5006C311.427 58.3157 311.494 58.0735 311.494 57.7716C311.494 57.4657 311.427 57.2214 311.288 57.0407C311.15 56.8579 310.968 56.7676 310.738 56.7676C310.506 56.7676 310.323 56.8578 310.184 57.0386C310.046 57.2193 309.977 57.4637 309.977 57.7736C309.977 58.0796 310.046 58.3239 310.184 58.5047C310.323 58.6874 310.506 58.7777 310.738 58.7777C310.968 58.7777 311.152 58.6853 311.288 58.5006Z" fill="#1C2D47"/>
<path d="M316.389 59.5124H315.69L314.522 57.3791V59.5124H313.823V56.0527H314.522L315.69 58.1963V56.0527H316.389V59.5124Z" fill="#1C2D47"/>
</g>
</g>
<defs>
<linearGradient id="paint0_linear_1894_3718" x1="166.222" y1="-5.05685" x2="164.531" y2="94.1457" gradientUnits="userSpaceOnUse">
<stop stop-color="#D9D5EC" stop-opacity="0.02"/>
<stop offset="0.483453" stop-color="#8884A0" stop-opacity="0.51"/>
<stop offset="1" stop-color="#D9D5EC" stop-opacity="0"/>
</linearGradient>
<linearGradient id="paint1_linear_1894_3718" x1="216.827" y1="58.8964" x2="221.33" y2="58.8964" gradientUnits="userSpaceOnUse">
<stop stop-color="#0FD4D8"/>
<stop offset="0.2878" stop-color="#09B0B9"/>
<stop offset="0.566" stop-color="#0495A1"/>
<stop offset="0.8119" stop-color="#018593"/>
<stop offset="1" stop-color="#007F8E"/>
</linearGradient>
<linearGradient id="paint2_linear_1894_3718" x1="206.223" y1="34.1614" x2="199.572" y2="51.9458" gradientUnits="userSpaceOnUse">
<stop stop-color="#139FCE" stop-opacity="0.9"/>
<stop offset="0.3219" stop-color="#139CCB" stop-opacity="0.9322"/>
<stop offset="0.5804" stop-color="#1293C1" stop-opacity="0.958"/>
<stop offset="0.8161" stop-color="#1083B0" stop-opacity="0.9816"/>
<stop offset="1" stop-color="#0E719D"/>
</linearGradient>
<linearGradient id="paint3_linear_1894_3718" x1="193.738" y1="58.1197" x2="212.231" y2="53.7464" gradientUnits="userSpaceOnUse">
<stop stop-color="#337FC9"/>
<stop offset="0.3501" stop-color="#317CC6"/>
<stop offset="0.6313" stop-color="#2D72BD"/>
<stop offset="0.8877" stop-color="#2561AF"/>
<stop offset="1" stop-color="#2057A6"/>
</linearGradient>
<linearGradient id="paint4_linear_1894_3718" x1="219.554" y1="59.2274" x2="204.08" y2="46.3869" gradientUnits="userSpaceOnUse">
<stop stop-color="#0FD4D8"/>
<stop offset="0.2561" stop-color="#0ED1D5"/>
<stop offset="0.4617" stop-color="#0DC7CC"/>
<stop offset="0.6499" stop-color="#0AB6BE"/>
<stop offset="0.8265" stop-color="#069EA9"/>
<stop offset="0.9955" stop-color="#00808F"/>
<stop offset="1" stop-color="#007F8E"/>
</linearGradient>
<linearGradient id="paint5_linear_1894_3718" x1="194.496" y1="57.7567" x2="211.554" y2="53.8225" gradientUnits="userSpaceOnUse">
<stop stop-color="#337FC9"/>
<stop offset="0.3003" stop-color="#3079C4"/>
<stop offset="0.6923" stop-color="#2869B6"/>
<stop offset="1" stop-color="#2057A6"/>
</linearGradient>
<linearGradient id="paint6_linear_1894_3718" x1="205.941" y1="33.0355" x2="199.908" y2="52.5295" gradientUnits="userSpaceOnUse">
<stop stop-color="#139FCE" stop-opacity="0.9"/>
<stop offset="0.2648" stop-color="#129AC8" stop-opacity="0.9265"/>
<stop offset="0.6111" stop-color="#118AB8" stop-opacity="0.9611"/>
<stop offset="1" stop-color="#0E719D"/>
</linearGradient>
<linearGradient id="paint7_linear_1894_3718" x1="219.542" y1="58.682" x2="203.752" y2="46.1988" gradientUnits="userSpaceOnUse">
<stop stop-color="#0FD4D8"/>
<stop offset="0.1881" stop-color="#0ECED3"/>
<stop offset="0.434" stop-color="#0BBEC5"/>
<stop offset="0.7122" stop-color="#06A3AD"/>
<stop offset="1" stop-color="#007F8E"/>
</linearGradient>
<linearGradient id="paint8_linear_1894_3718" x1="204.901" y1="31.6341" x2="208.21" y2="34.7703" gradientUnits="userSpaceOnUse">
<stop stop-color="#0E719D"/>
<stop offset="0.3889" stop-color="#118AB8" stop-opacity="0.9611"/>
<stop offset="0.7352" stop-color="#129AC8" stop-opacity="0.9265"/>
<stop offset="1" stop-color="#139FCE" stop-opacity="0.9"/>
</linearGradient>
<linearGradient id="paint9_linear_1894_3718" x1="193.612" y1="57.7465" x2="195.117" y2="57.7465" gradientUnits="userSpaceOnUse">
<stop stop-color="#337FC9"/>
<stop offset="0.3077" stop-color="#2B6DB9"/>
<stop offset="0.6997" stop-color="#235DAB"/>
<stop offset="1" stop-color="#2057A6"/>
</linearGradient>
<clipPath id="clip0_1894_3718">
<rect width="357" height="90.6667" fill="white"/>
</clipPath>
</defs>
</svg>
