<svg width="138" height="48" viewBox="0 0 138 48" fill="none" xmlns="http://www.w3.org/2000/svg">
<path d="M52.2397 25.2405V17.8705C52.2397 16.9805 52.0497 16.3105 51.6697 15.8605C51.2897 15.4105 50.7497 15.1805 50.0297 15.1805C49.3197 15.1805 48.7597 15.4105 48.3597 15.8605C47.9597 16.3105 47.7497 16.9805 47.7497 17.8705V25.2405H43.9897V17.8705C43.9897 16.9805 43.7997 16.3105 43.4197 15.8605C43.0397 15.4105 42.4997 15.1805 41.7797 15.1805C41.0697 15.1805 40.5097 15.4105 40.1097 15.8605C39.7097 16.3105 39.4997 16.9805 39.4997 17.8705V25.2405H35.7397V11.9805H39.4997V13.8705C39.7097 13.5805 39.9497 13.3205 40.2097 13.0605C40.4697 12.8005 40.7497 12.5705 41.0697 12.3805C41.3797 12.1805 41.7297 12.0205 42.1197 11.9005C42.5097 11.7805 42.9397 11.7305 43.4197 11.7305C44.2897 11.7305 45.0497 11.9105 45.6797 12.2805C46.3097 12.6505 46.7997 13.1705 47.1497 13.8505C47.7297 13.1505 48.3697 12.6305 49.0797 12.2705C49.7897 11.9105 50.5997 11.7405 51.5097 11.7405C52.9097 11.7405 54.0097 12.1505 54.7997 12.9705C55.5897 13.8005 55.9897 15.0105 55.9897 16.6005V25.2305L52.2397 25.2405Z" fill="white"/>
<path d="M65.8701 10.25C65.6001 10.19 65.3101 10.16 64.9801 10.16C64.0701 10.16 63.6201 10.64 63.6201 11.59V12.11H66.6601V15.18H63.6601V25.22H59.9001V15.19H58.3501V12.1H59.9001V11.26C59.9001 9.79 60.2501 8.72 60.9501 8.03C61.6501 7.35 62.6701 7 64.0101 7C64.6001 7 65.1101 7.04 65.5301 7.1C65.9501 7.16 66.3301 7.26 66.6801 7.38V10.5C66.4101 10.39 66.1401 10.32 65.8701 10.25Z" fill="white"/>
<path d="M45.88 41.2596C45.05 41.7096 43.99 41.9396 42.66 41.9396C41.68 41.9396 40.76 41.7597 39.9 41.3997C39.04 41.0297 38.32 40.5396 37.71 39.9296C37.1 39.3096 36.63 38.5896 36.28 37.7496C35.94 36.9196 35.77 36.0296 35.77 35.0896V35.0396C35.77 34.0996 35.94 33.2096 36.28 32.3596C36.62 31.5196 37.11 30.7896 37.71 30.1596C38.32 29.5296 39.05 29.0396 39.9 28.6796C40.76 28.3096 41.68 28.1396 42.7 28.1396C43.95 28.1396 44.99 28.3296 45.82 28.7296C46.65 29.1296 47.37 29.6696 48 30.3696L45.7 32.8396C45.27 32.3996 44.83 32.0396 44.38 31.7696C43.93 31.4996 43.36 31.3696 42.69 31.3696C42.21 31.3696 41.78 31.4596 41.39 31.6596C41 31.8496 40.66 32.1096 40.38 32.4396C40.09 32.7696 39.87 33.1596 39.71 33.5896C39.55 34.0296 39.47 34.4896 39.47 34.9896V35.0396C39.47 35.5496 39.55 36.0196 39.71 36.4696C39.87 36.9096 40.1 37.2997 40.39 37.6297C40.68 37.9597 41.04 38.2196 41.46 38.4096C41.88 38.5996 42.33 38.6996 42.85 38.6996C43.48 38.6996 44.03 38.5697 44.5 38.3097C44.97 38.0497 45.44 37.7096 45.9 37.2796L48.1 39.5096C47.44 40.2296 46.7 40.8096 45.88 41.2596Z" fill="white"/>
<path d="M62.8901 35.8496C62.8801 35.9796 62.8701 36.1396 62.8501 36.3196H53.6201C53.8001 37.1796 54.1701 37.8296 54.7401 38.2596C55.3101 38.6996 56.0101 38.9096 56.8501 38.9096C57.4801 38.9096 58.0401 38.7996 58.5301 38.5896C59.0301 38.3796 59.5301 38.0296 60.0701 37.5496L62.2201 39.4496C61.5901 40.2196 60.8301 40.8296 59.9401 41.2696C59.0501 41.6996 58.0001 41.9196 56.8001 41.9196C55.8201 41.9196 54.9001 41.7496 54.0401 41.4196C53.1801 41.0896 52.4601 40.6196 51.8401 40.0096C51.2201 39.3996 50.7401 38.6796 50.4001 37.8396C50.0601 37.0096 49.8901 36.0796 49.8901 35.0496V34.9996C49.8901 34.0596 50.0501 33.1696 50.3801 32.3196C50.7001 31.4796 51.1501 30.7496 51.7301 30.1196C52.3101 29.4896 53.0001 28.9996 53.8001 28.6396C54.6001 28.2696 55.4801 28.0996 56.4601 28.0996C57.5601 28.0996 58.5201 28.2896 59.3301 28.6896C60.1401 29.0896 60.8101 29.6196 61.3401 30.2896C61.8701 30.9596 62.2701 31.7196 62.5301 32.5896C62.7901 33.4596 62.9201 34.3596 62.9201 35.2996V35.3496C62.9001 35.5596 62.8901 35.7196 62.8901 35.8496ZM58.3401 31.9296C57.8601 31.4096 57.2301 31.1496 56.4401 31.1496C55.6501 31.1496 55.0101 31.4096 54.5201 31.9096C54.0301 32.4196 53.7201 33.1096 53.5701 33.9596H59.2301C59.1201 33.1296 58.8301 32.4596 58.3401 31.9296Z" fill="white"/>
<path d="M74.0797 41.6399V34.2699C74.0797 33.3799 73.8897 32.7099 73.4897 32.2599C73.0897 31.8099 72.5297 31.5799 71.8097 31.5799C71.0897 31.5799 70.5097 31.8099 70.0897 32.2599C69.6697 32.7099 69.4597 33.3799 69.4597 34.2699V41.6399H65.6997V28.3799H69.4597V30.2699C69.6697 29.9799 69.9097 29.7199 70.1697 29.4599C70.4297 29.1999 70.7097 28.9699 71.0297 28.7799C71.3397 28.5899 71.6897 28.4199 72.0697 28.2999C72.4497 28.1799 72.8797 28.1299 73.3597 28.1299C74.7897 28.1299 75.8997 28.5599 76.6897 29.4399C77.4697 30.3099 77.8697 31.5199 77.8697 33.0499V41.6399H74.0797Z" fill="white"/>
<path d="M87.2401 41.6502C86.7601 41.7902 86.2101 41.8602 85.5801 41.8602C85.0001 41.8602 84.4801 41.8002 84.0101 41.6802C83.5401 41.5602 83.1401 41.3402 82.8001 41.0302C82.4601 40.7202 82.2001 40.3002 82.0101 39.8102C81.8201 39.3002 81.7201 38.6702 81.7201 37.8902V31.6002H80.1401V28.3802H81.7201V24.9902H85.4801V28.3802H88.6001V31.6002H85.4801V37.2602C85.4801 38.1202 85.8801 38.5502 86.6901 38.5502C87.3501 38.5502 87.9701 38.3902 88.5501 38.0802V41.1002C88.1601 41.3302 87.7201 41.5102 87.2401 41.6502Z" fill="white"/>
<path d="M99.1701 32.0698C97.9201 32.0698 96.9301 32.4498 96.2101 33.2098C95.4901 33.9698 95.1301 35.1498 95.1301 36.7498V41.6498H91.3701V28.3898H95.1301V31.0698C95.5101 30.1598 96.0301 29.4298 96.6801 28.8898C97.3401 28.3498 98.2301 28.0998 99.3601 28.1498V32.0898H99.1701V32.0698V32.0698Z" fill="white"/>
<path d="M109.48 41.64V40.21C109.02 40.72 108.47 41.13 107.82 41.43C107.18 41.73 106.39 41.89 105.47 41.89C104.84 41.89 104.26 41.8 103.7 41.63C103.15 41.46 102.67 41.2 102.26 40.85C101.85 40.51 101.52 40.08 101.29 39.58C101.05 39.07 100.93 38.5 100.93 37.83V37.78C100.93 37.05 101.07 36.43 101.33 35.9C101.6 35.38 101.96 34.93 102.43 34.59C102.9 34.24 103.46 33.98 104.11 33.81C104.76 33.64 105.48 33.55 106.28 33.55C106.95 33.55 107.55 33.6 108.05 33.7C108.56 33.8 109.04 33.93 109.52 34.1V33.88C109.52 33.09 109.28 32.48 108.8 32.08C108.32 31.67 107.61 31.46 106.67 31.46C105.94 31.46 105.31 31.52 104.75 31.64C104.2 31.76 103.62 31.94 103 32.17L102.06 29.3C102.79 28.99 103.55 28.73 104.34 28.54C105.13 28.35 106.09 28.25 107.21 28.25C109.27 28.25 110.77 28.76 111.72 29.76C112.66 30.77 113.13 32.17 113.13 33.96V41.66L109.48 41.64ZM109.56 36.3C109.23 36.15 108.86 36.03 108.46 35.94C108.06 35.85 107.62 35.8 107.16 35.8C106.35 35.8 105.72 35.96 105.26 36.27C104.8 36.58 104.57 37.03 104.57 37.63V37.68C104.57 38.19 104.75 38.59 105.14 38.87C105.52 39.15 106.01 39.29 106.63 39.29C107.52 39.29 108.24 39.08 108.77 38.65C109.3 38.22 109.57 37.67 109.57 36.97L109.56 36.3Z" fill="white"/>
<path d="M115.18 41.6401V23.5801H118.94V41.6401H115.18Z" fill="white"/>
<path d="M11.53 32.8297C9.00997 31.8297 6.49997 30.8097 3.98997 29.7797C3.51997 29.5897 3.09997 29.2697 2.64997 29.0097C2.54997 28.8697 2.45997 28.7397 2.35997 28.6097C2.35997 28.5697 2.36997 28.4997 2.34997 28.4697C1.82997 27.2697 1.94997 26.1497 2.68997 25.2897C3.47997 24.3797 4.53997 24.1297 5.69997 24.5897C6.37997 24.8597 7.04997 25.1497 7.72997 25.4097C8.42997 25.6697 9.11997 25.9497 9.84997 26.0697C10.91 26.2497 11.79 25.7797 12.24 24.7197C12.56 23.9897 12.8 23.1897 12.93 22.3997C13.67 17.9397 14.34 13.4997 15.06 9.0497C15.27 7.7397 16.34 6.8797 17.5 7.0497C18.66 7.2197 19.44 8.3397 19.24 9.6597C19.07 10.8997 18.86 12.1497 18.67 13.3797C17.95 18.0797 17.19 22.7697 16.5 27.4797C16.14 29.9197 18.38 31.7297 20.53 30.7897C20.96 30.5997 21.34 30.2697 21.75 29.9797C22.21 30.9597 22.94 31.6297 24.03 31.7997C25.11 31.9597 26.02 31.5297 26.8 30.7197C27.69 32.4397 29.01 32.9497 30.76 32.3997C31.08 34.3997 30.66 36.1597 29.46 37.7397C29.25 38.0197 29.02 38.2697 28.8 38.5397C28.65 38.6697 28.49 38.7997 28.34 38.9197C25.43 40.4797 22.21 40.7897 19.11 41.5297C16.21 42.2197 13.35 40.0697 12.66 36.9597" fill="white"/>
<path d="M32.2899 20.0698C31.9399 19.8998 31.5999 19.6399 31.2299 19.5599C30.0099 19.2799 28.8999 20.1998 28.6699 21.6698C28.3099 23.9498 27.9399 26.2198 27.6199 28.5098C27.5299 29.0898 27.4999 29.7398 27.6499 30.2998C27.9199 31.2798 28.8799 31.8098 29.8199 31.6698C30.7999 31.5198 31.5199 30.7698 31.6899 29.6898C31.9799 27.8898 32.2499 26.1098 32.5299 24.3098C32.5999 23.8198 32.6699 23.3298 32.7599 22.8498C32.8999 22.1298 32.9499 21.4098 32.7399 20.7098C32.5999 20.4998 32.4499 20.2798 32.2899 20.0698Z" fill="url(#paint0_linear)"/>
<path d="M7.19014 9.45945C6.87014 9.89945 6.89014 10.3495 7.08014 10.8295C7.38014 11.5995 7.63014 12.3795 7.91014 13.1595C7.97014 13.3295 8.04014 13.4995 8.11014 13.6595C8.32014 14.0895 8.74014 14.2395 9.15014 14.0695C9.57014 13.8995 9.81014 13.4195 9.70014 12.9495C9.59014 12.5595 9.44014 12.1995 9.31014 11.8195C9.10014 11.2195 8.88014 10.6495 8.70014 10.0395C8.53014 9.48945 8.19014 9.19945 7.63014 9.18945C7.47014 9.28945 7.33014 9.36945 7.19014 9.45945Z" fill="url(#paint1_linear)"/>
<path d="M22.8798 30.1093C23.4198 30.7693 24.1498 31.0693 25.0198 30.8093C25.9198 30.5393 26.4698 29.8793 26.6298 28.9093C27.0898 26.0593 27.5198 23.2093 27.9998 20.3593C28.1398 19.5193 28.0998 18.7593 27.5498 18.1293C26.9798 17.4493 26.2398 17.2193 25.3998 17.4893C24.5398 17.7693 24.0298 18.4193 23.8698 19.3493C23.5098 21.5793 23.1598 23.8093 22.8098 26.0393C22.6898 26.7693 22.5798 27.5193 22.4598 28.2493C22.3198 28.9293 22.4698 29.5293 22.8798 30.1093Z" fill="url(#paint2_linear)"/>
<path d="M19.6497 17.0495C19.1297 17.4795 18.8497 17.9395 18.7697 18.5295C18.2897 21.5495 17.7997 24.5695 17.3697 27.5895C17.1497 29.1195 18.3597 30.3395 19.7697 30.0795C20.6397 29.9195 21.3497 29.1995 21.5197 28.2095C21.8697 26.1095 22.1897 24.0195 22.5197 21.9195C22.6697 20.9895 22.8297 20.0795 22.9497 19.1495C23.0697 18.2695 22.7797 17.5395 22.1097 17.0295C21.4397 16.5195 20.7297 16.4795 19.9797 16.8395C19.8297 16.9095 19.7097 17.0195 19.6497 17.0495Z" fill="url(#paint3_linear)"/>
<path d="M1.43994 18.2596C1.74994 18.4296 1.96994 18.6296 2.22994 18.6696C3.22994 18.8396 4.23994 18.9696 5.23994 19.0996C5.77994 19.1596 6.19994 18.8596 6.27994 18.3396C6.37994 17.8096 6.07994 17.3796 5.50994 17.2996C4.50994 17.1496 3.49994 16.9896 2.48994 16.9096C2.20994 16.8896 1.82994 17.0896 1.62994 17.3096C1.48994 17.5196 1.51994 17.8996 1.43994 18.2596Z" fill="url(#paint4_linear)"/>
<path d="M3.37985 13.7393C3.44985 13.8193 3.55985 13.9693 3.69985 14.0693C4.42985 14.6893 5.15985 15.2893 5.89985 15.8993C6.36985 16.2793 6.87985 16.2493 7.21985 15.8093C7.53985 15.3993 7.47985 14.8493 7.03985 14.4793C6.25985 13.8293 5.48985 13.1793 4.68985 12.5293C4.33985 12.2393 3.94985 12.2393 3.58985 12.5593C3.23985 12.8693 3.17985 13.2493 3.37985 13.7393Z" fill="url(#paint5_linear)"/>
<defs>
<linearGradient id="paint0_linear" x1="30.2064" y1="17.3713" x2="30.2064" y2="35.0899" gradientUnits="userSpaceOnUse">
<stop stop-color="#5ACAF0"/>
<stop offset="0.2527" stop-color="#4BABE0"/>
<stop offset="0.5565" stop-color="#438AC9"/>
<stop offset="0.8163" stop-color="#3D79BD"/>
<stop offset="1" stop-color="#3C73B9"/>
</linearGradient>
<linearGradient id="paint1_linear" x1="5.74164" y1="9.09845" x2="13.6233" y2="16.9802" gradientUnits="userSpaceOnUse">
<stop stop-color="#5ACAF0"/>
<stop offset="0.2527" stop-color="#4BABE0"/>
<stop offset="0.5565" stop-color="#438AC9"/>
<stop offset="0.8163" stop-color="#3D79BD"/>
<stop offset="1" stop-color="#3C73B9"/>
</linearGradient>
<linearGradient id="paint2_linear" x1="25.2314" y1="17.3723" x2="25.2314" y2="35.091" gradientUnits="userSpaceOnUse">
<stop stop-color="#5ACAF0"/>
<stop offset="0.2527" stop-color="#4BABE0"/>
<stop offset="0.5565" stop-color="#438AC9"/>
<stop offset="0.8163" stop-color="#3D79BD"/>
<stop offset="1" stop-color="#3C73B9"/>
</linearGradient>
<linearGradient id="paint3_linear" x1="20.1569" y1="17.3709" x2="20.1569" y2="35.0896" gradientUnits="userSpaceOnUse">
<stop stop-color="#5ACAF0"/>
<stop offset="0.2527" stop-color="#4BABE0"/>
<stop offset="0.5565" stop-color="#438AC9"/>
<stop offset="0.8163" stop-color="#3D79BD"/>
<stop offset="1" stop-color="#3C73B9"/>
</linearGradient>
<linearGradient id="paint4_linear" x1="0.341141" y1="14.4989" x2="8.22284" y2="22.3806" gradientUnits="userSpaceOnUse">
<stop stop-color="#5ACAF0"/>
<stop offset="0.2527" stop-color="#4BABE0"/>
<stop offset="0.5565" stop-color="#438AC9"/>
<stop offset="0.8163" stop-color="#3D79BD"/>
<stop offset="1" stop-color="#3C73B9"/>
</linearGradient>
<linearGradient id="paint5_linear" x1="2.96305" y1="11.8765" x2="10.8447" y2="19.7583" gradientUnits="userSpaceOnUse">
<stop stop-color="#5ACAF0"/>
<stop offset="0.2527" stop-color="#4BABE0"/>
<stop offset="0.5565" stop-color="#438AC9"/>
<stop offset="0.8163" stop-color="#3D79BD"/>
<stop offset="1" stop-color="#3C73B9"/>
</linearGradient>
</defs>
</svg>
